<svg xmlns="http://www.w3.org/2000/svg" viewBox="0 0 32 32" width="32" height="32">
  <!-- Background circle -->
  <circle cx="16" cy="16" r="15" fill="#1e40af" stroke="#3b82f6" stroke-width="1"/>
  
  <!-- Web/spider web pattern -->
  <g stroke="#ffffff" stroke-width="1" fill="none" opacity="0.9">
    <!-- Center point -->
    <circle cx="16" cy="16" r="1" fill="#ffffff"/>
    
    <!-- Radial lines -->
    <line x1="16" y1="16" x2="16" y2="6"/>
    <line x1="16" y1="16" x2="22" y2="10"/>
    <line x1="16" y1="16" x2="26" y2="16"/>
    <line x1="16" y1="16" x2="22" y2="22"/>
    <line x1="16" y1="16" x2="16" y2="26"/>
    <line x1="16" y1="16" x2="10" y2="22"/>
    <line x1="16" y1="16" x2="6" y2="16"/>
    <line x1="16" y1="16" x2="10" y2="10"/>
    
    <!-- Circular rings -->
    <circle cx="16" cy="16" r="4"/>
    <circle cx="16" cy="16" r="8"/>
    <circle cx="16" cy="16" r="12"/>
  </g>
  
  <!-- Data extraction symbols -->
  <g fill="#ffffff" opacity="0.8">
    <!-- Small data points -->
    <circle cx="12" cy="8" r="0.8"/>
    <circle cx="20" cy="8" r="0.8"/>
    <circle cx="24" cy="12" r="0.8"/>
    <circle cx="24" cy="20" r="0.8"/>
    <circle cx="20" cy="24" r="0.8"/>
    <circle cx="12" cy="24" r="0.8"/>
    <circle cx="8" cy="20" r="0.8"/>
    <circle cx="8" cy="12" r="0.8"/>
  </g>
  
  <!-- Scraping arrow -->
  <g stroke="#10b981" stroke-width="2" fill="none">
    <path d="M 4 28 L 12 20 L 8 20 L 8 12 L 16 20 L 12 20 Z" fill="#10b981"/>
  </g>
</svg> 